<svg width="1366" height="305" viewBox="0 0 1366 305" fill="none" xmlns="http://www.w3.org/2000/svg">
<rect width="1366" height="305" fill="#2C303A"/>
<rect width="1366" height="305" fill="url(#paint0_linear)"/>
<mask id="mask0" mask-type="alpha" maskUnits="userSpaceOnUse" x="778" y="-117" width="539" height="591">
<path d="M1312.49 10.2922C1156.06 51.0117 1017.3 123.05 905.863 244.569C933.969 275.452 966.112 284.925 1004.25 292.154C1086.17 206.392 1186.59 151.92 1299.66 118.851C1327.45 110.714 1313.43 35.6466 1312.49 10.2922Z" fill="#FF7224" fill-opacity="0.2"/>
<path d="M902.663 14.7596C783.458 82.7567 742.61 233.406 811.426 351.173C846.96 411.976 904.798 452.146 968.825 467.413C1162.02 513.395 1323.47 309.807 1316.64 131.173C1206.88 163.378 1111.48 216.093 1033.43 293.56C1262.74 332.607 1056.05 492.374 909.143 394.267C803.765 323.893 791.468 191.853 851.348 93.0621C888.136 32.3602 939.633 9.19283 1001.74 -16.9848C967.834 -13.5569 934.086 -3.17223 902.663 14.7596Z" fill="#FF7224" fill-opacity="0.2"/>
<path d="M1311.44 -117C1101.27 -52.6092 874.153 5.66139 861.059 141.166C858.149 161.301 862.427 183.275 876.549 207.54C881.073 215.305 885.691 222.251 890.425 228.508C998.363 107.168 1136.29 35.1343 1300.15 -6.3203C1328.49 -13.4892 1312.4 -91.9376 1311.44 -117Z" fill="#FF7224" fill-opacity="0.2"/>
</mask>
<g mask="url(#mask0)">
<rect width="1366" height="305" fill="#2C9DF1"/>
</g>
<defs>
<linearGradient id="paint0_linear" x1="1812.79" y1="-553.762" x2="854.532" y2="891.918" gradientUnits="userSpaceOnUse">
<stop offset="0.0621204" stop-color="#2C9DF1"/>
<stop offset="1" stop-color="#2C9DF1" stop-opacity="0"/>
</linearGradient>
</defs>
</svg>
